####
#
#	OBJ File Generated by LightWave3D
#	LightWave3D OBJ Export v2.3
#
####
o Table_v001.obj
mtllib Table_v001.mtl
g default
v -0.22366 0.259931 0.22966
v 0.223661 0.259931 0.22966
v 0.22366 0.259931 -0.217661
v -0.22366 0.259931 -0.217661
v -0.22366 0.261989 0.231718
v 0.223661 0.261989 0.231718
v 0.225718 0.261989 0.22966
v 0.225718 0.261989 -0.217661
v 0.223661 0.261989 -0.219718
v -0.22366 0.261989 -0.219718
v -0.225718 0.261989 -0.217661
v -0.225718 0.261989 0.22966
v -0.22366 0.268703 0.231718
v 0.223661 0.268703 0.231718
v 0.225718 0.268703 0.22966
v 0.225718 0.268703 -0.217661
v 0.223661 0.268703 -0.219718
v -0.22366 0.268703 -0.219718
v -0.225718 0.268703 -0.217661
v -0.225718 0.268703 0.22966
v -0.22366 0.270761 0.22966
v 0.223661 0.270761 0.22966
v 0.22366 0.270761 -0.217661
v -0.22366 0.270761 -0.217661
v 0.0188103 0.0121257 0.00129745
v 0.00940514 0.0121257 -0.0149927
v -0.00940466 0.0121257 -0.0149923
v -0.0188096 0.0121257 0.00129721
v -0.00940466 0.0121257 0.0175872
v 0.00940514 0.0121257 0.0175872
v 0.0188103 0.263707 0.00129745
v 0.00940514 0.263707 -0.0149927
v -0.00940466 0.263707 -0.0149923
v -0.0188096 0.263707 0.00129721
v -0.00940466 0.263707 0.0175872
v 0.00940514 0.263707 0.0175872
v -0.121676 0.0188098 0.0151102
v -0.135783 0.0188098 0.00100324
v 0.000587702 0.0188098 0.00100324
v -0.0135198 0.0188098 0.0151107
v 0.00058794 0.0188098 0.137374
v -0.0135198 0.0188098 0.123267
v -0.121676 0.0188098 -0.0131042
v -0.0135193 0.0188098 -0.0131045
v -0.0135195 0.0188098 -0.12126
v 0.000588179 0.0188098 -0.135367
v 0.0146956 0.0188098 0.0151105
v 0.0146956 0.0188098 0.123267
v 0.136959 0.0188098 0.00100348
v 0.122852 0.0188098 0.0151107
v 0.0146952 0.0188098 -0.0131042
v 0.122852 0.0188098 -0.013104
v 0.0146956 0.0188098 -0.121261
v -0.121676 0 0.0151102
v -0.135783 0 0.00100324
v 0.000587702 0 0.00100324
v -0.0135198 0 0.0151107
v 0.00058794 0 0.137374
v -0.0135198 0 0.123267
v -0.121676 0 -0.0131042
v -0.0135193 0 -0.0131045
v -0.0135195 0 -0.12126
v 0.000588179 0 -0.135367
v 0.0146956 0 0.0151105
v 0.0146956 0 0.123267
v 0.136959 0 0.00100348
v 0.122852 0 0.0151107
v 0.0146952 0 -0.0131042
v 0.122852 0 -0.013104
v 0.0146956 0 -0.121261
vt 0 0.00455737
vt 0 0.995443
vt 0.00455737 0
vt 0.00455737 0.00455737
vt 0.00455737 0.995443
vt 0.00455737 1
vt 0.995443 0
vt 0.995443 0.00455737
vt 0.995443 0.995443
vt 0.995443 1
vt 1 0.00455737
vt 1 0.995443
vn -0.366987 -0.854757 -0.36703
vn 0.366998 -0.854761 -0.367009
vn 0.367016 -0.854764 0.366985
vn -0.366993 -0.854778 0.366974
vn 0.367016 -0.854764 0.366985
vn 0.367031 -0.367008 0.854747
vn -0.367026 -0.367022 0.854744
vn -0.366993 -0.854778 0.366974
vn 0.854779 -0.366987 0.366979
vn 0.367031 -0.367008 0.854747
vn 0.367016 -0.854764 0.366985
vn 0.366998 -0.854761 -0.367009
vn 0.854761 -0.367011 -0.366996
vn 0.854779 -0.366987 0.366979
vn 0.367016 -0.854764 0.366985
vn 0.366994 -0.366998 -0.854768
vn 0.854761 -0.367011 -0.366996
vn 0.366998 -0.854761 -0.367009
vn -0.366977 -0.366973 -0.854786
vn 0.366994 -0.366998 -0.854768
vn 0.366998 -0.854761 -0.367009
vn -0.366987 -0.854757 -0.36703
vn -0.854747 -0.367008 -0.367031
vn -0.366977 -0.366973 -0.854786
vn -0.366987 -0.854757 -0.36703
vn -0.854769 -0.367015 0.366976
vn -0.854747 -0.367008 -0.367031
vn -0.366987 -0.854757 -0.36703
vn -0.366993 -0.854778 0.366974
vn -0.367026 -0.367022 0.854744
vn -0.854769 -0.367015 0.366976
vn -0.366993 -0.854778 0.366974
vn 0.367031 -0.367008 0.854747
vn 0.367031 0.367008 0.854747
vn -0.367026 0.367022 0.854744
vn -0.367026 -0.367022 0.854744
vn 0.854779 -0.366987 0.366979
vn 0.854779 0.366987 0.366979
vn 0.367031 0.367008 0.854747
vn 0.367031 -0.367008 0.854747
vn 0.854761 -0.367011 -0.366996
vn 0.854761 0.367011 -0.366996
vn 0.854779 0.366987 0.366979
vn 0.854779 -0.366987 0.366979
vn 0.366994 -0.366998 -0.854768
vn 0.366994 0.366998 -0.854768
vn 0.854761 0.367011 -0.366996
vn 0.854761 -0.367011 -0.366996
vn -0.366977 0.366973 -0.854786
vn 0.366994 0.366998 -0.854768
vn 0.366994 -0.366998 -0.854768
vn -0.366977 -0.366973 -0.854786
vn -0.854747 0.367008 -0.367031
vn -0.366977 0.366973 -0.854786
vn -0.366977 -0.366973 -0.854786
vn -0.854747 -0.367008 -0.367031
vn -0.854768 0.367014 0.366976
vn -0.854747 0.367008 -0.367031
vn -0.854747 -0.367008 -0.367031
vn -0.854769 -0.367015 0.366976
vn -0.367026 0.367022 0.854744
vn -0.854768 0.367014 0.366976
vn -0.854769 -0.367015 0.366976
vn -0.367026 -0.367022 0.854744
vn 0.367031 0.367008 0.854747
vn 0.367016 0.854764 0.366985
vn -0.366993 0.854778 0.366974
vn -0.367026 0.367022 0.854744
vn 0.854779 0.366987 0.366979
vn 0.367016 0.854764 0.366985
vn 0.367031 0.367008 0.854747
vn 0.854761 0.367011 -0.366996
vn 0.366998 0.854761 -0.367009
vn 0.367016 0.854764 0.366985
vn 0.854779 0.366987 0.366979
vn 0.366994 0.366998 -0.854768
vn 0.366998 0.854761 -0.367009
vn 0.854761 0.367011 -0.366996
vn -0.366987 0.854757 -0.36703
vn 0.366998 0.854761 -0.367009
vn 0.366994 0.366998 -0.854768
vn -0.366977 0.366973 -0.854786
vn -0.366987 0.854757 -0.36703
vn -0.366977 0.366973 -0.854786
vn -0.854747 0.367008 -0.367031
vn -0.366993 0.854778 0.366974
vn -0.366987 0.854757 -0.36703
vn -0.854747 0.367008 -0.367031
vn -0.854768 0.367014 0.366976
vn -0.366993 0.854778 0.366974
vn -0.854768 0.367014 0.366976
vn -0.367026 0.367022 0.854744
vn 0.367016 0.854764 0.366985
vn 0.366998 0.854761 -0.367009
vn -0.366987 0.854757 -0.36703
vn -0.366993 0.854778 0.366974
vn 0.433008 -0.499999 0.750003
vn -0.433014 -0.500001 0.749999
vn -0.866025 -0.5 -5.49853e-06
vn -0.43302 -0.499996 -0.749998
vn 0.433003 -0.500003 -0.750004
vn 0.866025 -0.500001 5.46874e-06
vn 0.433003 -0.500003 -0.750004
vn 0.433003 0.500003 -0.750004
vn 0.866025 0.500001 5.46874e-06
vn 0.866025 -0.500001 5.46874e-06
vn -0.43302 0.499996 -0.749998
vn 0.433003 0.500003 -0.750004
vn 0.433003 -0.500003 -0.750004
vn -0.43302 -0.499996 -0.749998
vn -0.866025 0.5 -5.49853e-06
vn -0.43302 0.499996 -0.749998
vn -0.43302 -0.499996 -0.749998
vn -0.866025 -0.5 -5.49853e-06
vn -0.433014 0.500001 0.749999
vn -0.866025 0.5 -5.49853e-06
vn -0.866025 -0.5 -5.49853e-06
vn -0.433014 -0.500001 0.749999
vn 0.433008 0.499999 0.750003
vn -0.433014 0.500001 0.749999
vn -0.433014 -0.500001 0.749999
vn 0.433008 -0.499999 0.750003
vn 0.866025 -0.500001 5.46874e-06
vn 0.866025 0.500001 5.46874e-06
vn 0.433008 0.499999 0.750003
vn 0.433008 -0.499999 0.750003
vn 0.433003 0.500003 -0.750004
vn -0.43302 0.499996 -0.749998
vn -0.866025 0.5 -5.49853e-06
vn -0.433014 0.500001 0.749999
vn 0.433008 0.499999 0.750003
vn 0.866025 0.500001 5.46874e-06
vn -0.40825 -0.816496 0.408248
vn -0.40825 0.816496 0.408248
vn -0.336559 0.475963 0.812519
vn -0.336559 -0.475963 0.812519
vn -0.336559 0.475963 0.812519
vn -0.577352 0.816495 2.45768e-06
vn -0.577352 -0.816495 2.45768e-06
vn -0.336559 -0.475963 0.812519
vn -2.45767e-06 0.816491 0.577358
vn -0.812516 0.475964 0.336563
vn -0.812516 -0.475964 0.336563
vn -2.45767e-06 -0.816491 0.577358
vn -0.812516 0.475964 0.336563
vn -0.40825 0.816496 0.408248
vn -0.40825 -0.816496 0.408248
vn -0.812516 -0.475964 0.336563
vn -0.577352 0.816495 2.45768e-06
vn -0.336561 0.475964 -0.812518
vn -0.336561 -0.475964 -0.812518
vn -0.577352 -0.816495 2.45768e-06
vn -0.336561 0.475964 -0.812518
vn -0.408249 0.816497 -0.408247
vn -0.408249 -0.816497 -0.408247
vn -0.336561 -0.475964 -0.812518
vn -0.408249 0.816497 -0.408247
vn -0.812515 0.475965 -0.336566
vn -0.812515 -0.475965 -0.336566
vn -0.408249 -0.816497 -0.408247
vn -0.812515 0.475965 -0.336566
vn -2.43333e-08 0.81649 -0.57736
vn -2.43333e-08 -0.81649 -0.57736
vn -0.812515 -0.475965 -0.336566
vn 0.812515 -0.475965 0.336567
vn 0.812515 0.475965 0.336567
vn -2.45767e-06 0.816491 0.577358
vn -2.45767e-06 -0.816491 0.577358
vn 0.408248 -0.816497 0.408248
vn 0.408248 0.816497 0.408248
vn 0.812515 0.475965 0.336567
vn 0.812515 -0.475965 0.336567
vn 0.336559 -0.475964 0.812518
vn 0.336559 0.475964 0.812518
vn 0.408248 0.816497 0.408248
vn 0.408248 -0.816497 0.408248
vn 0.577355 -0.816493 2.43334e-06
vn 0.577355 0.816493 2.43334e-06
vn 0.336559 0.475964 0.812518
vn 0.336559 -0.475964 0.812518
vn 0.408249 0.816497 -0.408247
vn 0.336564 0.475964 -0.812516
vn 0.336564 -0.475964 -0.812516
vn 0.408249 -0.816497 -0.408247
vn 0.336564 -0.475964 -0.812516
vn 0.336564 0.475964 -0.812516
vn 0.577355 0.816493 2.43334e-06
vn 0.577355 -0.816493 2.43334e-06
vn -2.43333e-08 -0.81649 -0.57736
vn -2.43333e-08 0.81649 -0.57736
vn 0.812515 0.475965 -0.336565
vn 0.812515 -0.475965 -0.336565
vn 0.812515 -0.475965 -0.336565
vn 0.812515 0.475965 -0.336565
vn 0.408249 0.816497 -0.408247
vn 0.408249 -0.816497 -0.408247
vn -0.40825 0.816496 0.408248
vn 0 1 -0
vn -0.577352 0.816495 2.45768e-06
vn -0.336559 0.475963 0.812519
vn -0.577352 -0.816495 2.45768e-06
vn 0 -1 -0
vn -0.40825 -0.816496 0.408248
vn -0.336559 -0.475963 0.812519
vn 0 1 -0
vn -0.40825 0.816496 0.408248
vn -0.812516 0.475964 0.336563
vn -2.45767e-06 0.816491 0.577358
vn -0.812516 -0.475964 0.336563
vn -0.40825 -0.816496 0.408248
vn 0 -1 -0
vn -2.45767e-06 -0.816491 0.577358
vn 0 1 -0
vn -0.408249 0.816497 -0.408247
vn -0.336561 0.475964 -0.812518
vn -0.577352 0.816495 2.45768e-06
vn -0.336561 -0.475964 -0.812518
vn -0.408249 -0.816497 -0.408247
vn 0 -1 -0
vn -0.577352 -0.816495 2.45768e-06
vn -2.43333e-08 0.81649 -0.57736
vn -0.812515 0.475965 -0.336566
vn -0.408249 0.816497 -0.408247
vn 0 1 -0
vn -0.408249 -0.816497 -0.408247
vn -0.812515 -0.475965 -0.336566
vn -2.43333e-08 -0.81649 -0.57736
vn 0 -1 -0
vn 0.812515 0.475965 0.336567
vn 0.408248 0.816497 0.408248
vn 0 1 -0
vn -2.45767e-06 0.816491 0.577358
vn 0 -1 -0
vn 0.408248 -0.816497 0.408248
vn 0.812515 -0.475965 0.336567
vn -2.45767e-06 -0.816491 0.577358
vn 0.336559 0.475964 0.812518
vn 0.577355 0.816493 2.43334e-06
vn 0 1 -0
vn 0.408248 0.816497 0.408248
vn 0 -1 -0
vn 0.577355 -0.816493 2.43334e-06
vn 0.336559 -0.475964 0.812518
vn 0.408248 -0.816497 0.408248
vn 0.577355 0.816493 2.43334e-06
vn 0.336564 0.475964 -0.812516
vn 0.408249 0.816497 -0.408247
vn 0 1 -0
vn 0.408249 -0.816497 -0.408247
vn 0.336564 -0.475964 -0.812516
vn 0.577355 -0.816493 2.43334e-06
vn 0 -1 -0
vn 0.408249 0.816497 -0.408247
vn 0.812515 0.475965 -0.336565
vn -2.43333e-08 0.81649 -0.57736
vn 0 1 -0
vn -2.43333e-08 -0.81649 -0.57736
vn 0.812515 -0.475965 -0.336565
vn 0.408249 -0.816497 -0.408247
vn 0 -1 -0
g group_Table.Top
usemtl Table.Top
s off
f 4/5/1 3/9/2 2/8/3 1/4/4
f 2/8/5 6/7/6 5/3/7 1/4/8
f 7/11/9 6/7/10 2/8/11
f 3/9/12 8/12/13 7/11/14 2/8/15
f 9/10/16 8/12/17 3/9/18
f 10/6/19 9/10/20 3/9/21 4/5/22
f 11/2/23 10/6/24 4/5/25
f 12/1/26 11/2/27 4/5/28 1/4/29
f 5/3/30 12/1/31 1/4/32
f 6/7/33 14/7/34 13/3/35 5/3/36
f 7/11/37 15/11/38 14/7/39 6/7/40
f 8/12/41 16/12/42 15/11/43 7/11/44
f 9/10/45 17/10/46 16/12/47 8/12/48
f 18/6/49 17/10/50 9/10/51 10/6/52
f 19/2/53 18/6/54 10/6/55 11/2/56
f 20/1/57 19/2/58 11/2/59 12/1/60
f 13/3/61 20/1/62 12/1/63 5/3/64
f 14/7/65 22/8/66 21/4/67 13/3/68
f 15/11/69 22/8/70 14/7/71
f 16/12/72 23/9/73 22/8/74 15/11/75
f 17/10/76 23/9/77 16/12/78
f 24/5/79 23/9/80 17/10/81 18/6/82
f 24/5/83 18/6/84 19/2/85
f 21/4/86 24/5/87 19/2/88 20/1/89
f 21/4/90 20/1/91 13/3/92
f 22/8/93 23/9/94 24/5/95 21/4/96
g group_Table.Base
usemtl Table.Base
s off
f 30//97 29//98 28//99 27//100 26//101 25//102
f 26//103 32//104 31//105 25//106
f 33//107 32//108 26//109 27//110
f 34//111 33//112 27//113 28//114
f 35//115 34//116 28//117 29//118
f 36//119 35//120 29//121 30//122
f 25//123 31//124 36//125 30//126
f 32//127 33//128 34//129 35//130 36//131 31//132
f 57//133 40//134 37//135 54//136
f 37//137 38//138 55//139 54//140
f 41//141 42//142 59//143 58//144
f 42//145 40//146 57//147 59//148
f 38//149 43//150 60//151 55//152
f 43//153 44//154 61//155 60//156
f 44//157 45//158 62//159 61//160
f 45//161 46//162 63//163 62//164
f 65//165 48//166 41//167 58//168
f 64//169 47//170 48//171 65//172
f 67//173 50//174 47//175 64//176
f 66//177 49//178 50//179 67//180
f 51//181 52//182 69//183 68//184
f 69//185 52//186 49//187 66//188
f 63//189 46//190 53//191 70//192
f 70//193 53//194 51//195 68//196
f 40//197 39//198 38//199 37//200
f 55//201 56//202 57//203 54//204
f 39//205 40//206 42//207 41//208
f 59//209 57//210 56//211 58//212
f 39//213 44//214 43//215 38//216
f 60//217 61//218 56//219 55//220
f 46//221 45//222 44//223 39//224
f 61//225 62//226 63//227 56//228
f 48//229 47//230 39//231 41//232
f 56//233 64//234 65//235 58//236
f 50//237 49//238 39//239 47//240
f 56//241 66//242 67//243 64//244
f 49//245 52//246 51//247 39//248
f 68//249 69//250 66//251 56//252
f 51//253 53//254 46//255 39//256
f 63//257 70//258 68//259 56//260
